<mxfile host="app.diagrams.net" agent="Mozilla/5.0 (Macintosh; Intel Mac OS X 10_15_7) AppleWebKit/605.1.15 (KHTML, like Gecko) Version/17.4 Safari/605.1.15" version="24.7.14">
  <diagram name="Page-1" id="LAWlbNaRBcGqU0EnTYAl">
    <mxGraphModel dx="2550" dy="2127" grid="1" gridSize="10" guides="1" tooltips="1" connect="1" arrows="1" fold="1" page="1" pageScale="1" pageWidth="827" pageHeight="1169" math="0" shadow="0">
      <root>
        <mxCell id="0" />
        <mxCell id="1" parent="0" />
        <mxCell id="SKj9K2RSf02lLVQ6DTLs-1" value="&lt;font style=&quot;font-size: 18px;&quot;&gt;Movie&lt;/font&gt;" style="rounded=1;whiteSpace=wrap;html=1;fillColor=#dae8fc;strokeColor=#6c8ebf;" parent="1" vertex="1">
          <mxGeometry x="6" y="140" width="120" height="60" as="geometry" />
        </mxCell>
        <mxCell id="SKj9K2RSf02lLVQ6DTLs-2" value="" style="endArrow=none;html=1;rounded=0;exitX=0;exitY=0.5;exitDx=0;exitDy=0;entryX=1;entryY=0;entryDx=0;entryDy=0;" parent="1" source="SKj9K2RSf02lLVQ6DTLs-1" target="SKj9K2RSf02lLVQ6DTLs-3" edge="1">
          <mxGeometry width="50" height="50" relative="1" as="geometry">
            <mxPoint x="276" y="320" as="sourcePoint" />
            <mxPoint x="-24" y="100" as="targetPoint" />
          </mxGeometry>
        </mxCell>
        <mxCell id="SKj9K2RSf02lLVQ6DTLs-3" value="id" style="ellipse;whiteSpace=wrap;html=1;" parent="1" vertex="1">
          <mxGeometry x="-270" y="244" width="70" height="40" as="geometry" />
        </mxCell>
        <mxCell id="SKj9K2RSf02lLVQ6DTLs-4" value="" style="endArrow=none;html=1;rounded=0;exitX=0;exitY=0.5;exitDx=0;exitDy=0;entryX=1;entryY=0.5;entryDx=0;entryDy=0;" parent="1" source="SKj9K2RSf02lLVQ6DTLs-1" target="SKj9K2RSf02lLVQ6DTLs-5" edge="1">
          <mxGeometry width="50" height="50" relative="1" as="geometry">
            <mxPoint x="16" y="150" as="sourcePoint" />
            <mxPoint x="36" y="110" as="targetPoint" />
          </mxGeometry>
        </mxCell>
        <mxCell id="SKj9K2RSf02lLVQ6DTLs-5" value="name" style="ellipse;whiteSpace=wrap;html=1;" parent="1" vertex="1">
          <mxGeometry x="-290" y="190" width="70" height="40" as="geometry" />
        </mxCell>
        <mxCell id="SKj9K2RSf02lLVQ6DTLs-6" value="" style="endArrow=none;html=1;rounded=0;exitX=0;exitY=0.25;exitDx=0;exitDy=0;entryX=1;entryY=0.5;entryDx=0;entryDy=0;" parent="1" source="SKj9K2RSf02lLVQ6DTLs-1" target="SKj9K2RSf02lLVQ6DTLs-7" edge="1">
          <mxGeometry width="50" height="50" relative="1" as="geometry">
            <mxPoint x="46" y="150" as="sourcePoint" />
            <mxPoint x="96" y="110" as="targetPoint" />
          </mxGeometry>
        </mxCell>
        <mxCell id="SKj9K2RSf02lLVQ6DTLs-7" value="premiere_city" style="ellipse;whiteSpace=wrap;html=1;" parent="1" vertex="1">
          <mxGeometry x="-260" y="140" width="95" height="40" as="geometry" />
        </mxCell>
        <mxCell id="SKj9K2RSf02lLVQ6DTLs-8" value="" style="endArrow=none;html=1;rounded=0;exitX=0;exitY=0.75;exitDx=0;exitDy=0;entryX=1;entryY=0;entryDx=0;entryDy=0;" parent="1" source="SKj9K2RSf02lLVQ6DTLs-1" target="SKj9K2RSf02lLVQ6DTLs-12" edge="1">
          <mxGeometry width="50" height="50" relative="1" as="geometry">
            <mxPoint x="16" y="150" as="sourcePoint" />
            <mxPoint x="-34" y="140" as="targetPoint" />
          </mxGeometry>
        </mxCell>
        <mxCell id="SKj9K2RSf02lLVQ6DTLs-9" value="" style="endArrow=none;html=1;rounded=0;exitX=0;exitY=1;exitDx=0;exitDy=0;entryX=1;entryY=0;entryDx=0;entryDy=0;" parent="1" source="SKj9K2RSf02lLVQ6DTLs-1" target="SKj9K2RSf02lLVQ6DTLs-13" edge="1">
          <mxGeometry width="50" height="50" relative="1" as="geometry">
            <mxPoint x="26" y="160" as="sourcePoint" />
            <mxPoint x="-34" y="185" as="targetPoint" />
          </mxGeometry>
        </mxCell>
        <mxCell id="SKj9K2RSf02lLVQ6DTLs-10" value="" style="endArrow=none;html=1;rounded=0;exitX=0;exitY=0;exitDx=0;exitDy=0;entryX=1;entryY=0.5;entryDx=0;entryDy=0;" parent="1" source="SKj9K2RSf02lLVQ6DTLs-1" target="SKj9K2RSf02lLVQ6DTLs-11" edge="1">
          <mxGeometry width="50" height="50" relative="1" as="geometry">
            <mxPoint x="36" y="170" as="sourcePoint" />
            <mxPoint x="116" y="110" as="targetPoint" />
          </mxGeometry>
        </mxCell>
        <mxCell id="SKj9K2RSf02lLVQ6DTLs-11" value="production_company" style="ellipse;whiteSpace=wrap;html=1;" parent="1" vertex="1">
          <mxGeometry x="-310" y="90" width="130" height="40" as="geometry" />
        </mxCell>
        <mxCell id="SKj9K2RSf02lLVQ6DTLs-12" value="genre" style="ellipse;whiteSpace=wrap;html=1;" parent="1" vertex="1">
          <mxGeometry x="-170" y="250" width="70" height="40" as="geometry" />
        </mxCell>
        <mxCell id="SKj9K2RSf02lLVQ6DTLs-13" value="country_of_origin" style="ellipse;whiteSpace=wrap;html=1;" parent="1" vertex="1">
          <mxGeometry x="-220" y="300" width="130" height="40" as="geometry" />
        </mxCell>
        <mxCell id="SKj9K2RSf02lLVQ6DTLs-14" value="&lt;font size=&quot;4&quot;&gt;Actor&lt;/font&gt;" style="rounded=1;whiteSpace=wrap;html=1;fillColor=#fff2cc;strokeColor=#d6b656;" parent="1" vertex="1">
          <mxGeometry x="590" y="140" width="120" height="60" as="geometry" />
        </mxCell>
        <mxCell id="SKj9K2RSf02lLVQ6DTLs-15" value="" style="endArrow=none;html=1;rounded=0;exitX=0.5;exitY=0;exitDx=0;exitDy=0;entryX=0.5;entryY=1;entryDx=0;entryDy=0;" parent="1" source="SKj9K2RSf02lLVQ6DTLs-14" target="SKj9K2RSf02lLVQ6DTLs-16" edge="1">
          <mxGeometry width="50" height="50" relative="1" as="geometry">
            <mxPoint x="860" y="320" as="sourcePoint" />
            <mxPoint x="560" y="100" as="targetPoint" />
          </mxGeometry>
        </mxCell>
        <mxCell id="SKj9K2RSf02lLVQ6DTLs-16" value="first_name" style="ellipse;whiteSpace=wrap;html=1;" parent="1" vertex="1">
          <mxGeometry x="650" y="25" width="80" height="40" as="geometry" />
        </mxCell>
        <mxCell id="SKj9K2RSf02lLVQ6DTLs-17" value="" style="endArrow=none;html=1;rounded=0;exitX=1;exitY=0.25;exitDx=0;exitDy=0;entryX=0;entryY=1;entryDx=0;entryDy=0;" parent="1" source="SKj9K2RSf02lLVQ6DTLs-14" target="SKj9K2RSf02lLVQ6DTLs-18" edge="1">
          <mxGeometry width="50" height="50" relative="1" as="geometry">
            <mxPoint x="600" y="150" as="sourcePoint" />
            <mxPoint x="620" y="110" as="targetPoint" />
          </mxGeometry>
        </mxCell>
        <mxCell id="SKj9K2RSf02lLVQ6DTLs-18" value="date_of_birth" style="ellipse;whiteSpace=wrap;html=1;" parent="1" vertex="1">
          <mxGeometry x="760" y="105" width="90" height="40" as="geometry" />
        </mxCell>
        <mxCell id="SKj9K2RSf02lLVQ6DTLs-19" value="" style="endArrow=none;html=1;rounded=0;exitX=0.75;exitY=0;exitDx=0;exitDy=0;entryX=0.5;entryY=1;entryDx=0;entryDy=0;" parent="1" source="SKj9K2RSf02lLVQ6DTLs-14" target="SKj9K2RSf02lLVQ6DTLs-20" edge="1">
          <mxGeometry width="50" height="50" relative="1" as="geometry">
            <mxPoint x="630" y="150" as="sourcePoint" />
            <mxPoint x="680" y="110" as="targetPoint" />
          </mxGeometry>
        </mxCell>
        <mxCell id="SKj9K2RSf02lLVQ6DTLs-20" value="last_name" style="ellipse;whiteSpace=wrap;html=1;" parent="1" vertex="1">
          <mxGeometry x="730" y="-10" width="90" height="40" as="geometry" />
        </mxCell>
        <mxCell id="SKj9K2RSf02lLVQ6DTLs-21" value="" style="endArrow=none;html=1;rounded=0;exitX=0.25;exitY=0;exitDx=0;exitDy=0;entryX=0.5;entryY=1;entryDx=0;entryDy=0;" parent="1" source="SKj9K2RSf02lLVQ6DTLs-14" target="SKj9K2RSf02lLVQ6DTLs-25" edge="1">
          <mxGeometry width="50" height="50" relative="1" as="geometry">
            <mxPoint x="600" y="150" as="sourcePoint" />
            <mxPoint x="550" y="140" as="targetPoint" />
          </mxGeometry>
        </mxCell>
        <mxCell id="SKj9K2RSf02lLVQ6DTLs-22" value="" style="endArrow=none;html=1;rounded=0;exitX=1;exitY=0.5;exitDx=0;exitDy=0;entryX=0;entryY=0.5;entryDx=0;entryDy=0;" parent="1" source="SKj9K2RSf02lLVQ6DTLs-14" target="SKj9K2RSf02lLVQ6DTLs-26" edge="1">
          <mxGeometry width="50" height="50" relative="1" as="geometry">
            <mxPoint x="610" y="160" as="sourcePoint" />
            <mxPoint x="550" y="185" as="targetPoint" />
          </mxGeometry>
        </mxCell>
        <mxCell id="SKj9K2RSf02lLVQ6DTLs-23" value="" style="endArrow=none;html=1;rounded=0;exitX=1;exitY=0;exitDx=0;exitDy=0;entryX=0;entryY=1;entryDx=0;entryDy=0;" parent="1" source="SKj9K2RSf02lLVQ6DTLs-14" target="SKj9K2RSf02lLVQ6DTLs-24" edge="1">
          <mxGeometry width="50" height="50" relative="1" as="geometry">
            <mxPoint x="620" y="170" as="sourcePoint" />
            <mxPoint x="700" y="110" as="targetPoint" />
          </mxGeometry>
        </mxCell>
        <mxCell id="SKj9K2RSf02lLVQ6DTLs-24" value="nickname" style="ellipse;whiteSpace=wrap;html=1;" parent="1" vertex="1">
          <mxGeometry x="770" y="50" width="90" height="40" as="geometry" />
        </mxCell>
        <mxCell id="SKj9K2RSf02lLVQ6DTLs-25" value="id" style="ellipse;whiteSpace=wrap;html=1;" parent="1" vertex="1">
          <mxGeometry x="610" y="65" width="50" height="30" as="geometry" />
        </mxCell>
        <mxCell id="SKj9K2RSf02lLVQ6DTLs-26" value="agent_code" style="ellipse;whiteSpace=wrap;html=1;" parent="1" vertex="1">
          <mxGeometry x="820" y="150" width="110" height="40" as="geometry" />
        </mxCell>
        <mxCell id="SKj9K2RSf02lLVQ6DTLs-36" value="" style="endArrow=none;html=1;rounded=0;exitX=1;exitY=0.5;exitDx=0;exitDy=0;entryX=0;entryY=0.5;entryDx=0;entryDy=0;" parent="1" source="SKj9K2RSf02lLVQ6DTLs-1" target="SKj9K2RSf02lLVQ6DTLs-14" edge="1">
          <mxGeometry width="50" height="50" relative="1" as="geometry">
            <mxPoint x="390" y="320" as="sourcePoint" />
            <mxPoint x="440" y="270" as="targetPoint" />
          </mxGeometry>
        </mxCell>
        <mxCell id="SKj9K2RSf02lLVQ6DTLs-39" value="M" style="edgeLabel;html=1;align=center;verticalAlign=middle;resizable=0;points=[];" parent="SKj9K2RSf02lLVQ6DTLs-36" vertex="1" connectable="0">
          <mxGeometry x="-0.9161" y="1" relative="1" as="geometry">
            <mxPoint x="-3" y="10" as="offset" />
          </mxGeometry>
        </mxCell>
        <mxCell id="SKj9K2RSf02lLVQ6DTLs-40" value="M" style="edgeLabel;html=1;align=center;verticalAlign=middle;resizable=0;points=[];" parent="SKj9K2RSf02lLVQ6DTLs-36" vertex="1" connectable="0">
          <mxGeometry x="0.871" relative="1" as="geometry">
            <mxPoint x="10" y="9" as="offset" />
          </mxGeometry>
        </mxCell>
        <mxCell id="SKj9K2RSf02lLVQ6DTLs-38" value="" style="rounded=1;whiteSpace=wrap;html=1;fillColor=#f8cecc;strokeColor=#b85450;" parent="1" vertex="1">
          <mxGeometry x="300" y="144" width="120" height="60" as="geometry" />
        </mxCell>
        <mxCell id="SKj9K2RSf02lLVQ6DTLs-37" value="movie_actor" style="rhombus;whiteSpace=wrap;html=1;fillColor=#f8cecc;strokeColor=#b85450;" parent="1" vertex="1">
          <mxGeometry x="300" y="145" width="120" height="58" as="geometry" />
        </mxCell>
        <mxCell id="SKj9K2RSf02lLVQ6DTLs-42" value="" style="endArrow=none;html=1;rounded=0;exitX=0.25;exitY=1;exitDx=0;exitDy=0;entryX=0.5;entryY=0;entryDx=0;entryDy=0;" parent="1" source="SKj9K2RSf02lLVQ6DTLs-38" target="SKj9K2RSf02lLVQ6DTLs-45" edge="1">
          <mxGeometry width="50" height="50" relative="1" as="geometry">
            <mxPoint x="380" y="260" as="sourcePoint" />
            <mxPoint x="270" y="65" as="targetPoint" />
          </mxGeometry>
        </mxCell>
        <mxCell id="SKj9K2RSf02lLVQ6DTLs-43" value="" style="endArrow=none;html=1;rounded=0;exitX=0.5;exitY=1;exitDx=0;exitDy=0;entryX=0.5;entryY=0;entryDx=0;entryDy=0;" parent="1" source="SKj9K2RSf02lLVQ6DTLs-37" target="SKj9K2RSf02lLVQ6DTLs-46" edge="1">
          <mxGeometry width="50" height="50" relative="1" as="geometry">
            <mxPoint x="340" y="154" as="sourcePoint" />
            <mxPoint x="361" y="80" as="targetPoint" />
          </mxGeometry>
        </mxCell>
        <mxCell id="SKj9K2RSf02lLVQ6DTLs-44" value="" style="endArrow=none;html=1;rounded=0;exitX=0.75;exitY=1;exitDx=0;exitDy=0;entryX=0.5;entryY=0;entryDx=0;entryDy=0;" parent="1" source="SKj9K2RSf02lLVQ6DTLs-38" target="SKj9K2RSf02lLVQ6DTLs-47" edge="1">
          <mxGeometry width="50" height="50" relative="1" as="geometry">
            <mxPoint x="350" y="164" as="sourcePoint" />
            <mxPoint x="440" y="80" as="targetPoint" />
          </mxGeometry>
        </mxCell>
        <mxCell id="SKj9K2RSf02lLVQ6DTLs-45" value="movie_id" style="ellipse;whiteSpace=wrap;html=1;" parent="1" vertex="1">
          <mxGeometry x="250" y="244" width="80" height="40" as="geometry" />
        </mxCell>
        <mxCell id="SKj9K2RSf02lLVQ6DTLs-46" value="actor_id" style="ellipse;whiteSpace=wrap;html=1;" parent="1" vertex="1">
          <mxGeometry x="318.5" y="284" width="80" height="40" as="geometry" />
        </mxCell>
        <mxCell id="SKj9K2RSf02lLVQ6DTLs-47" value="payment" style="ellipse;whiteSpace=wrap;html=1;" parent="1" vertex="1">
          <mxGeometry x="391" y="244" width="80" height="40" as="geometry" />
        </mxCell>
        <mxCell id="SKj9K2RSf02lLVQ6DTLs-51" value="" style="endArrow=none;html=1;rounded=0;exitX=0.75;exitY=1;exitDx=0;exitDy=0;" parent="1" source="SKj9K2RSf02lLVQ6DTLs-1" target="SKj9K2RSf02lLVQ6DTLs-50" edge="1">
          <mxGeometry width="50" height="50" relative="1" as="geometry">
            <mxPoint x="96" y="200" as="sourcePoint" />
            <mxPoint x="96" y="360" as="targetPoint" />
          </mxGeometry>
        </mxCell>
        <mxCell id="SKj9K2RSf02lLVQ6DTLs-68" value="1" style="edgeLabel;html=1;align=center;verticalAlign=middle;resizable=0;points=[];" parent="SKj9K2RSf02lLVQ6DTLs-51" vertex="1" connectable="0">
          <mxGeometry x="-0.8252" y="1" relative="1" as="geometry">
            <mxPoint x="6" y="-3" as="offset" />
          </mxGeometry>
        </mxCell>
        <mxCell id="SKj9K2RSf02lLVQ6DTLs-50" value="is" style="rhombus;whiteSpace=wrap;html=1;fillColor=#ffe6cc;strokeColor=#d79b00;" parent="1" vertex="1">
          <mxGeometry x="92" y="360" width="44" height="40" as="geometry" />
        </mxCell>
        <mxCell id="SKj9K2RSf02lLVQ6DTLs-52" value="" style="endArrow=none;html=1;rounded=0;exitX=0.25;exitY=1;exitDx=0;exitDy=0;" parent="1" source="SKj9K2RSf02lLVQ6DTLs-1" target="SKj9K2RSf02lLVQ6DTLs-53" edge="1">
          <mxGeometry width="50" height="50" relative="1" as="geometry">
            <mxPoint x="-30" y="190" as="sourcePoint" />
            <mxPoint x="40" y="360" as="targetPoint" />
          </mxGeometry>
        </mxCell>
        <mxCell id="SKj9K2RSf02lLVQ6DTLs-66" value="1" style="edgeLabel;html=1;align=center;verticalAlign=middle;resizable=0;points=[];" parent="SKj9K2RSf02lLVQ6DTLs-52" vertex="1" connectable="0">
          <mxGeometry x="-0.7752" y="1" relative="1" as="geometry">
            <mxPoint x="4" y="-7" as="offset" />
          </mxGeometry>
        </mxCell>
        <mxCell id="SKj9K2RSf02lLVQ6DTLs-53" value="is" style="rhombus;whiteSpace=wrap;html=1;fillColor=#ffe6cc;strokeColor=#d79b00;" parent="1" vertex="1">
          <mxGeometry y="360" width="44" height="40" as="geometry" />
        </mxCell>
        <mxCell id="SKj9K2RSf02lLVQ6DTLs-54" value="" style="endArrow=none;html=1;rounded=0;exitX=0.5;exitY=1;exitDx=0;exitDy=0;entryX=0.5;entryY=0;entryDx=0;entryDy=0;" parent="1" source="SKj9K2RSf02lLVQ6DTLs-53" target="SKj9K2RSf02lLVQ6DTLs-56" edge="1">
          <mxGeometry width="50" height="50" relative="1" as="geometry">
            <mxPoint x="300" y="430" as="sourcePoint" />
            <mxPoint x="-40" y="520" as="targetPoint" />
          </mxGeometry>
        </mxCell>
        <mxCell id="SKj9K2RSf02lLVQ6DTLs-67" value="1" style="edgeLabel;html=1;align=center;verticalAlign=middle;resizable=0;points=[];rotation=45;" parent="SKj9K2RSf02lLVQ6DTLs-54" vertex="1" connectable="0">
          <mxGeometry x="0.7476" y="1" relative="1" as="geometry">
            <mxPoint x="5" y="3" as="offset" />
          </mxGeometry>
        </mxCell>
        <mxCell id="SKj9K2RSf02lLVQ6DTLs-55" value="" style="endArrow=none;html=1;rounded=0;exitX=0.5;exitY=1;exitDx=0;exitDy=0;entryX=0.5;entryY=0;entryDx=0;entryDy=0;" parent="1" source="SKj9K2RSf02lLVQ6DTLs-50" target="SKj9K2RSf02lLVQ6DTLs-70" edge="1">
          <mxGeometry width="50" height="50" relative="1" as="geometry">
            <mxPoint x="48" y="410" as="sourcePoint" />
            <mxPoint x="160" y="520" as="targetPoint" />
          </mxGeometry>
        </mxCell>
        <mxCell id="SKj9K2RSf02lLVQ6DTLs-69" value="1" style="edgeLabel;html=1;align=center;verticalAlign=middle;resizable=0;points=[];rotation=-30;" parent="SKj9K2RSf02lLVQ6DTLs-55" vertex="1" connectable="0">
          <mxGeometry x="0.738" y="1" relative="1" as="geometry">
            <mxPoint x="10" y="4" as="offset" />
          </mxGeometry>
        </mxCell>
        <mxCell id="SKj9K2RSf02lLVQ6DTLs-56" value="&lt;font style=&quot;font-size: 18px;&quot;&gt;TV_Series&lt;/font&gt;" style="rounded=1;whiteSpace=wrap;html=1;fillColor=#fff2cc;strokeColor=#d6b656;" parent="1" vertex="1">
          <mxGeometry x="-120" y="500" width="120" height="60" as="geometry" />
        </mxCell>
        <mxCell id="SKj9K2RSf02lLVQ6DTLs-57" value="" style="endArrow=none;html=1;rounded=0;exitX=0;exitY=0;exitDx=0;exitDy=0;entryX=1;entryY=1;entryDx=0;entryDy=0;" parent="1" source="SKj9K2RSf02lLVQ6DTLs-56" target="SKj9K2RSf02lLVQ6DTLs-58" edge="1">
          <mxGeometry width="50" height="50" relative="1" as="geometry">
            <mxPoint x="150" y="720" as="sourcePoint" />
            <mxPoint x="-150" y="500" as="targetPoint" />
          </mxGeometry>
        </mxCell>
        <mxCell id="SKj9K2RSf02lLVQ6DTLs-58" value="tv_channel" style="ellipse;whiteSpace=wrap;html=1;" parent="1" vertex="1">
          <mxGeometry x="-210" y="430" width="70" height="40" as="geometry" />
        </mxCell>
        <mxCell id="SKj9K2RSf02lLVQ6DTLs-59" value="" style="endArrow=none;html=1;rounded=0;exitX=0.25;exitY=0;exitDx=0;exitDy=0;entryX=0.5;entryY=1;entryDx=0;entryDy=0;" parent="1" source="SKj9K2RSf02lLVQ6DTLs-56" target="SKj9K2RSf02lLVQ6DTLs-60" edge="1">
          <mxGeometry width="50" height="50" relative="1" as="geometry">
            <mxPoint x="-110" y="550" as="sourcePoint" />
            <mxPoint x="-90" y="510" as="targetPoint" />
          </mxGeometry>
        </mxCell>
        <mxCell id="SKj9K2RSf02lLVQ6DTLs-60" value="movie_id" style="ellipse;whiteSpace=wrap;html=1;" parent="1" vertex="1">
          <mxGeometry x="-124" y="420" width="70" height="40" as="geometry" />
        </mxCell>
        <mxCell id="SKj9K2RSf02lLVQ6DTLs-61" value="" style="endArrow=none;html=1;rounded=0;exitX=0;exitY=0.25;exitDx=0;exitDy=0;entryX=1;entryY=1;entryDx=0;entryDy=0;" parent="1" source="SKj9K2RSf02lLVQ6DTLs-56" target="SKj9K2RSf02lLVQ6DTLs-63" edge="1">
          <mxGeometry width="50" height="50" relative="1" as="geometry">
            <mxPoint x="-110" y="550" as="sourcePoint" />
            <mxPoint x="-160" y="540" as="targetPoint" />
          </mxGeometry>
        </mxCell>
        <mxCell id="SKj9K2RSf02lLVQ6DTLs-62" value="" style="endArrow=none;html=1;rounded=0;exitX=0;exitY=0.75;exitDx=0;exitDy=0;entryX=1;entryY=0.5;entryDx=0;entryDy=0;" parent="1" source="SKj9K2RSf02lLVQ6DTLs-56" target="SKj9K2RSf02lLVQ6DTLs-64" edge="1">
          <mxGeometry width="50" height="50" relative="1" as="geometry">
            <mxPoint x="-100" y="560" as="sourcePoint" />
            <mxPoint x="-160" y="585" as="targetPoint" />
          </mxGeometry>
        </mxCell>
        <mxCell id="SKj9K2RSf02lLVQ6DTLs-63" value="number_of_episodes" style="ellipse;whiteSpace=wrap;html=1;" parent="1" vertex="1">
          <mxGeometry x="-330" y="460" width="130" height="40" as="geometry" />
        </mxCell>
        <mxCell id="SKj9K2RSf02lLVQ6DTLs-64" value="number_of_seasons" style="ellipse;whiteSpace=wrap;html=1;" parent="1" vertex="1">
          <mxGeometry x="-304" y="520" width="130" height="40" as="geometry" />
        </mxCell>
        <mxCell id="SKj9K2RSf02lLVQ6DTLs-70" value="&lt;font style=&quot;font-size: 18px;&quot;&gt;Film&lt;/font&gt;" style="rounded=1;whiteSpace=wrap;html=1;fillColor=#d5e8d4;strokeColor=#82b366;" parent="1" vertex="1">
          <mxGeometry x="117" y="500" width="120" height="60" as="geometry" />
        </mxCell>
        <mxCell id="SKj9K2RSf02lLVQ6DTLs-71" value="" style="endArrow=none;html=1;rounded=0;exitX=0.75;exitY=0;exitDx=0;exitDy=0;entryX=0.5;entryY=1;entryDx=0;entryDy=0;" parent="1" source="SKj9K2RSf02lLVQ6DTLs-70" target="SKj9K2RSf02lLVQ6DTLs-72" edge="1">
          <mxGeometry width="50" height="50" relative="1" as="geometry">
            <mxPoint x="214" y="500" as="sourcePoint" />
            <mxPoint x="214" y="510" as="targetPoint" />
          </mxGeometry>
        </mxCell>
        <mxCell id="SKj9K2RSf02lLVQ6DTLs-72" value="movie_id" style="ellipse;whiteSpace=wrap;html=1;" parent="1" vertex="1">
          <mxGeometry x="167" y="400" width="70" height="40" as="geometry" />
        </mxCell>
        <mxCell id="SKj9K2RSf02lLVQ6DTLs-73" value="" style="endArrow=none;html=1;rounded=0;exitX=1;exitY=0;exitDx=0;exitDy=0;entryX=0.5;entryY=1;entryDx=0;entryDy=0;" parent="1" source="SKj9K2RSf02lLVQ6DTLs-70" target="SKj9K2RSf02lLVQ6DTLs-74" edge="1">
          <mxGeometry width="50" height="50" relative="1" as="geometry">
            <mxPoint x="335" y="520" as="sourcePoint" />
            <mxPoint x="335" y="530" as="targetPoint" />
          </mxGeometry>
        </mxCell>
        <mxCell id="SKj9K2RSf02lLVQ6DTLs-74" value="first_week_profit" style="ellipse;whiteSpace=wrap;html=1;" parent="1" vertex="1">
          <mxGeometry x="260" y="420" width="110" height="40" as="geometry" />
        </mxCell>
        <mxCell id="SKj9K2RSf02lLVQ6DTLs-75" value="" style="endArrow=none;html=1;rounded=0;exitX=0.25;exitY=1;exitDx=0;exitDy=0;entryX=0.5;entryY=0;entryDx=0;entryDy=0;" parent="1" source="SKj9K2RSf02lLVQ6DTLs-70" target="SKj9K2RSf02lLVQ6DTLs-76" edge="1">
          <mxGeometry width="50" height="50" relative="1" as="geometry">
            <mxPoint x="413" y="540" as="sourcePoint" />
            <mxPoint x="120" y="600" as="targetPoint" />
          </mxGeometry>
        </mxCell>
        <mxCell id="SKj9K2RSf02lLVQ6DTLs-76" value="premiere_format" style="ellipse;whiteSpace=wrap;html=1;" parent="1" vertex="1">
          <mxGeometry x="63.5" y="607" width="101" height="40" as="geometry" />
        </mxCell>
        <mxCell id="SKj9K2RSf02lLVQ6DTLs-79" value="" style="endArrow=none;html=1;rounded=0;exitX=0;exitY=0.75;exitDx=0;exitDy=0;entryX=0.5;entryY=0;entryDx=0;entryDy=0;" parent="1" source="SKj9K2RSf02lLVQ6DTLs-70" target="SKj9K2RSf02lLVQ6DTLs-80" edge="1">
          <mxGeometry width="50" height="50" relative="1" as="geometry">
            <mxPoint x="364" y="610" as="sourcePoint" />
            <mxPoint x="364" y="620" as="targetPoint" />
          </mxGeometry>
        </mxCell>
        <mxCell id="SKj9K2RSf02lLVQ6DTLs-80" value="director_payment" style="ellipse;whiteSpace=wrap;html=1;" parent="1" vertex="1">
          <mxGeometry x="-55.5" y="607" width="110" height="40" as="geometry" />
        </mxCell>
        <mxCell id="SKj9K2RSf02lLVQ6DTLs-82" value="&lt;font style=&quot;font-size: 18px;&quot;&gt;Director&lt;/font&gt;" style="rounded=1;whiteSpace=wrap;html=1;fillColor=#e1d5e7;strokeColor=#9673a6;" parent="1" vertex="1">
          <mxGeometry x="115.5" y="812" width="120" height="60" as="geometry" />
        </mxCell>
        <mxCell id="SKj9K2RSf02lLVQ6DTLs-83" value="" style="endArrow=none;html=1;rounded=0;exitX=0;exitY=0;exitDx=0;exitDy=0;entryX=0.5;entryY=1;entryDx=0;entryDy=0;" parent="1" source="SKj9K2RSf02lLVQ6DTLs-82" target="SKj9K2RSf02lLVQ6DTLs-84" edge="1">
          <mxGeometry width="50" height="50" relative="1" as="geometry">
            <mxPoint x="212.5" y="812" as="sourcePoint" />
            <mxPoint x="212.5" y="822" as="targetPoint" />
          </mxGeometry>
        </mxCell>
        <mxCell id="SKj9K2RSf02lLVQ6DTLs-84" value="id" style="ellipse;whiteSpace=wrap;html=1;" parent="1" vertex="1">
          <mxGeometry x="29.5" y="732" width="70" height="40" as="geometry" />
        </mxCell>
        <mxCell id="SKj9K2RSf02lLVQ6DTLs-85" value="" style="endArrow=none;html=1;rounded=0;entryX=1;entryY=0;entryDx=0;entryDy=0;exitX=0;exitY=0.75;exitDx=0;exitDy=0;" parent="1" source="SKj9K2RSf02lLVQ6DTLs-82" target="SKj9K2RSf02lLVQ6DTLs-86" edge="1">
          <mxGeometry width="50" height="50" relative="1" as="geometry">
            <mxPoint x="235.5" y="812" as="sourcePoint" />
            <mxPoint x="333.5" y="842" as="targetPoint" />
          </mxGeometry>
        </mxCell>
        <mxCell id="SKj9K2RSf02lLVQ6DTLs-86" value="first_name" style="ellipse;whiteSpace=wrap;html=1;" parent="1" vertex="1">
          <mxGeometry x="-55.5" y="852" width="110" height="40" as="geometry" />
        </mxCell>
        <mxCell id="SKj9K2RSf02lLVQ6DTLs-87" value="" style="endArrow=none;html=1;rounded=0;exitX=1;exitY=0.5;exitDx=0;exitDy=0;entryX=0;entryY=1;entryDx=0;entryDy=0;" parent="1" source="SKj9K2RSf02lLVQ6DTLs-82" target="SKj9K2RSf02lLVQ6DTLs-88" edge="1">
          <mxGeometry width="50" height="50" relative="1" as="geometry">
            <mxPoint x="411.5" y="852" as="sourcePoint" />
            <mxPoint x="411.5" y="862" as="targetPoint" />
          </mxGeometry>
        </mxCell>
        <mxCell id="SKj9K2RSf02lLVQ6DTLs-88" value="last_name" style="ellipse;whiteSpace=wrap;html=1;" parent="1" vertex="1">
          <mxGeometry x="290" y="782" width="101" height="40" as="geometry" />
        </mxCell>
        <mxCell id="SKj9K2RSf02lLVQ6DTLs-89" value="" style="endArrow=none;html=1;rounded=0;exitX=1;exitY=0.75;exitDx=0;exitDy=0;entryX=0;entryY=0.5;entryDx=0;entryDy=0;" parent="1" source="SKj9K2RSf02lLVQ6DTLs-82" target="SKj9K2RSf02lLVQ6DTLs-90" edge="1">
          <mxGeometry width="50" height="50" relative="1" as="geometry">
            <mxPoint x="362.5" y="922" as="sourcePoint" />
            <mxPoint x="362.5" y="932" as="targetPoint" />
          </mxGeometry>
        </mxCell>
        <mxCell id="SKj9K2RSf02lLVQ6DTLs-90" value="genre" style="ellipse;whiteSpace=wrap;html=1;" parent="1" vertex="1">
          <mxGeometry x="318.5" y="842" width="110" height="40" as="geometry" />
        </mxCell>
        <mxCell id="SKj9K2RSf02lLVQ6DTLs-91" value="" style="endArrow=none;html=1;rounded=0;exitX=0;exitY=0.25;exitDx=0;exitDy=0;entryX=1;entryY=0.5;entryDx=0;entryDy=0;" parent="1" source="SKj9K2RSf02lLVQ6DTLs-82" target="SKj9K2RSf02lLVQ6DTLs-92" edge="1">
          <mxGeometry width="50" height="50" relative="1" as="geometry">
            <mxPoint x="245.5" y="867" as="sourcePoint" />
            <mxPoint x="372.5" y="942" as="targetPoint" />
          </mxGeometry>
        </mxCell>
        <mxCell id="SKj9K2RSf02lLVQ6DTLs-92" value="expertise" style="ellipse;whiteSpace=wrap;html=1;" parent="1" vertex="1">
          <mxGeometry x="-67.5" y="782" width="110" height="40" as="geometry" />
        </mxCell>
        <mxCell id="SKj9K2RSf02lLVQ6DTLs-93" value="" style="endArrow=none;html=1;rounded=0;exitX=0.5;exitY=1;exitDx=0;exitDy=0;entryX=0.5;entryY=0;entryDx=0;entryDy=0;" parent="1" source="SKj9K2RSf02lLVQ6DTLs-95" target="SKj9K2RSf02lLVQ6DTLs-82" edge="1">
          <mxGeometry width="50" height="50" relative="1" as="geometry">
            <mxPoint x="177" y="560" as="sourcePoint" />
            <mxPoint x="180" y="680" as="targetPoint" />
          </mxGeometry>
        </mxCell>
        <mxCell id="SKj9K2RSf02lLVQ6DTLs-97" value="1" style="edgeLabel;html=1;align=center;verticalAlign=middle;resizable=0;points=[];" parent="SKj9K2RSf02lLVQ6DTLs-93" vertex="1" connectable="0">
          <mxGeometry x="0.7847" y="-1" relative="1" as="geometry">
            <mxPoint x="-6" as="offset" />
          </mxGeometry>
        </mxCell>
        <mxCell id="SKj9K2RSf02lLVQ6DTLs-94" value="" style="endArrow=none;html=1;rounded=0;exitX=0.5;exitY=1;exitDx=0;exitDy=0;" parent="1" target="SKj9K2RSf02lLVQ6DTLs-95" edge="1">
          <mxGeometry width="50" height="50" relative="1" as="geometry">
            <mxPoint x="177" y="560" as="sourcePoint" />
            <mxPoint x="180" y="680" as="targetPoint" />
          </mxGeometry>
        </mxCell>
        <mxCell id="SKj9K2RSf02lLVQ6DTLs-96" value="1" style="edgeLabel;html=1;align=center;verticalAlign=middle;resizable=0;points=[];" parent="SKj9K2RSf02lLVQ6DTLs-94" vertex="1" connectable="0">
          <mxGeometry x="-0.8" relative="1" as="geometry">
            <mxPoint x="-9" as="offset" />
          </mxGeometry>
        </mxCell>
        <mxCell id="SKj9K2RSf02lLVQ6DTLs-95" value="directed" style="rhombus;whiteSpace=wrap;html=1;fillColor=#ffe6cc;strokeColor=#d79b00;" parent="1" vertex="1">
          <mxGeometry x="145" y="647" width="64" height="60" as="geometry" />
        </mxCell>
        <mxCell id="SKj9K2RSf02lLVQ6DTLs-98" value="" style="endArrow=none;html=1;rounded=0;exitX=0.5;exitY=0;exitDx=0;exitDy=0;entryX=0.5;entryY=1;entryDx=0;entryDy=0;" parent="1" source="SKj9K2RSf02lLVQ6DTLs-101" target="SKj9K2RSf02lLVQ6DTLs-106" edge="1">
          <mxGeometry width="50" height="50" relative="1" as="geometry">
            <mxPoint y="60" as="sourcePoint" />
            <mxPoint x="-60" y="-70" as="targetPoint" />
          </mxGeometry>
        </mxCell>
        <mxCell id="SKj9K2RSf02lLVQ6DTLs-105" value="M" style="edgeLabel;html=1;align=center;verticalAlign=middle;resizable=0;points=[];rotation=-30;" parent="SKj9K2RSf02lLVQ6DTLs-98" vertex="1" connectable="0">
          <mxGeometry x="0.7094" relative="1" as="geometry">
            <mxPoint x="-8" y="3" as="offset" />
          </mxGeometry>
        </mxCell>
        <mxCell id="SKj9K2RSf02lLVQ6DTLs-103" value="" style="endArrow=none;html=1;rounded=0;exitX=0.133;exitY=-0.033;exitDx=0;exitDy=0;entryX=0.5;entryY=1;entryDx=0;entryDy=0;exitPerimeter=0;" parent="1" source="SKj9K2RSf02lLVQ6DTLs-1" target="SKj9K2RSf02lLVQ6DTLs-101" edge="1">
          <mxGeometry width="50" height="50" relative="1" as="geometry">
            <mxPoint x="36" y="140" as="sourcePoint" />
            <mxPoint x="-60" y="-70" as="targetPoint" />
          </mxGeometry>
        </mxCell>
        <mxCell id="SKj9K2RSf02lLVQ6DTLs-104" value="1" style="edgeLabel;html=1;align=center;verticalAlign=middle;resizable=0;points=[];rotation=-20;" parent="SKj9K2RSf02lLVQ6DTLs-103" vertex="1" connectable="0">
          <mxGeometry x="-0.6273" y="1" relative="1" as="geometry">
            <mxPoint x="-5" y="6" as="offset" />
          </mxGeometry>
        </mxCell>
        <mxCell id="SKj9K2RSf02lLVQ6DTLs-101" value="has" style="rhombus;whiteSpace=wrap;html=1;rotation=-25;fillColor=#ffe6cc;strokeColor=#d79b00;" parent="1" vertex="1">
          <mxGeometry x="-54" width="48.57" height="53.53" as="geometry" />
        </mxCell>
        <mxCell id="SKj9K2RSf02lLVQ6DTLs-106" value="&lt;font style=&quot;font-size: 18px;&quot;&gt;Sequel&lt;/font&gt;" style="rounded=1;whiteSpace=wrap;html=1;fillColor=#e1d5e7;strokeColor=#9673a6;" parent="1" vertex="1">
          <mxGeometry x="-143.5" y="-140" width="120" height="60" as="geometry" />
        </mxCell>
        <mxCell id="SKj9K2RSf02lLVQ6DTLs-107" value="" style="endArrow=none;html=1;rounded=0;entryX=0;entryY=1;entryDx=0;entryDy=0;exitX=1;exitY=0.5;exitDx=0;exitDy=0;" parent="1" source="SKj9K2RSf02lLVQ6DTLs-108" target="SKj9K2RSf02lLVQ6DTLs-106" edge="1">
          <mxGeometry width="50" height="50" relative="1" as="geometry">
            <mxPoint x="-170" y="-110" as="sourcePoint" />
            <mxPoint x="-290" y="-90" as="targetPoint" />
          </mxGeometry>
        </mxCell>
        <mxCell id="SKj9K2RSf02lLVQ6DTLs-108" value="movie_id" style="ellipse;whiteSpace=wrap;html=1;" parent="1" vertex="1">
          <mxGeometry x="-260" y="-100" width="80" height="50" as="geometry" />
        </mxCell>
        <mxCell id="SKj9K2RSf02lLVQ6DTLs-109" value="" style="endArrow=none;html=1;rounded=0;exitX=0;exitY=0.5;exitDx=0;exitDy=0;entryX=0.5;entryY=1;entryDx=0;entryDy=0;" parent="1" source="SKj9K2RSf02lLVQ6DTLs-106" target="SKj9K2RSf02lLVQ6DTLs-110" edge="1">
          <mxGeometry width="50" height="50" relative="1" as="geometry">
            <mxPoint x="-200" y="-150" as="sourcePoint" />
            <mxPoint x="-84" y="-180" as="targetPoint" />
          </mxGeometry>
        </mxCell>
        <mxCell id="SKj9K2RSf02lLVQ6DTLs-110" value="id" style="ellipse;whiteSpace=wrap;html=1;" parent="1" vertex="1">
          <mxGeometry x="-210" y="-180" width="59" height="40" as="geometry" />
        </mxCell>
        <mxCell id="SKj9K2RSf02lLVQ6DTLs-111" value="" style="endArrow=none;html=1;rounded=0;exitX=0.75;exitY=0;exitDx=0;exitDy=0;entryX=0.5;entryY=1;entryDx=0;entryDy=0;" parent="1" source="SKj9K2RSf02lLVQ6DTLs-1" target="SKj9K2RSf02lLVQ6DTLs-113" edge="1">
          <mxGeometry width="50" height="50" relative="1" as="geometry">
            <mxPoint x="180" y="50" as="sourcePoint" />
            <mxPoint x="120" as="targetPoint" />
          </mxGeometry>
        </mxCell>
        <mxCell id="SKj9K2RSf02lLVQ6DTLs-138" value="M" style="edgeLabel;html=1;align=center;verticalAlign=middle;resizable=0;points=[];rotation=45;" parent="SKj9K2RSf02lLVQ6DTLs-111" vertex="1" connectable="0">
          <mxGeometry x="-0.6353" y="-2" relative="1" as="geometry">
            <mxPoint x="6" y="1" as="offset" />
          </mxGeometry>
        </mxCell>
        <mxCell id="SKj9K2RSf02lLVQ6DTLs-112" value="" style="rounded=1;whiteSpace=wrap;html=1;fillColor=#f8cecc;strokeColor=#b85450;" parent="1" vertex="1">
          <mxGeometry x="110" y="-20" width="118" height="60" as="geometry" />
        </mxCell>
        <mxCell id="SKj9K2RSf02lLVQ6DTLs-113" value="movie_critic" style="rhombus;whiteSpace=wrap;html=1;fillColor=#f8cecc;strokeColor=#b85450;" parent="1" vertex="1">
          <mxGeometry x="110" y="-20" width="118" height="60" as="geometry" />
        </mxCell>
        <mxCell id="SKj9K2RSf02lLVQ6DTLs-114" value="" style="endArrow=none;html=1;rounded=0;exitX=0.5;exitY=0;exitDx=0;exitDy=0;entryX=0.5;entryY=1;entryDx=0;entryDy=0;" parent="1" source="SKj9K2RSf02lLVQ6DTLs-113" target="SKj9K2RSf02lLVQ6DTLs-115" edge="1">
          <mxGeometry width="50" height="50" relative="1" as="geometry">
            <mxPoint x="154" y="-70" as="sourcePoint" />
            <mxPoint x="190" y="-120" as="targetPoint" />
          </mxGeometry>
        </mxCell>
        <mxCell id="SKj9K2RSf02lLVQ6DTLs-137" value="M" style="edgeLabel;html=1;align=center;verticalAlign=middle;resizable=0;points=[];" parent="SKj9K2RSf02lLVQ6DTLs-114" vertex="1" connectable="0">
          <mxGeometry x="0.7975" y="1" relative="1" as="geometry">
            <mxPoint x="10" as="offset" />
          </mxGeometry>
        </mxCell>
        <mxCell id="SKj9K2RSf02lLVQ6DTLs-115" value="&lt;font style=&quot;font-size: 18px;&quot;&gt;Critic&lt;/font&gt;" style="rounded=1;whiteSpace=wrap;html=1;fillColor=#d5e8d4;strokeColor=#82b366;" parent="1" vertex="1">
          <mxGeometry x="130" y="-180" width="120" height="40" as="geometry" />
        </mxCell>
        <mxCell id="SKj9K2RSf02lLVQ6DTLs-116" value="" style="endArrow=none;html=1;rounded=0;entryX=0.5;entryY=1;entryDx=0;entryDy=0;" parent="1" target="SKj9K2RSf02lLVQ6DTLs-117" edge="1">
          <mxGeometry width="50" height="50" relative="1" as="geometry">
            <mxPoint x="122" y="-20" as="sourcePoint" />
            <mxPoint x="90" y="-60" as="targetPoint" />
          </mxGeometry>
        </mxCell>
        <mxCell id="SKj9K2RSf02lLVQ6DTLs-117" value="movie_id" style="ellipse;whiteSpace=wrap;html=1;" parent="1" vertex="1">
          <mxGeometry x="79" y="-80" width="70" height="40" as="geometry" />
        </mxCell>
        <mxCell id="SKj9K2RSf02lLVQ6DTLs-118" value="" style="endArrow=none;html=1;rounded=0;entryX=0;entryY=0.25;entryDx=0;entryDy=0;exitX=1;exitY=1;exitDx=0;exitDy=0;" parent="1" source="SKj9K2RSf02lLVQ6DTLs-119" target="SKj9K2RSf02lLVQ6DTLs-112" edge="1">
          <mxGeometry width="50" height="50" relative="1" as="geometry">
            <mxPoint x="60" y="-20" as="sourcePoint" />
            <mxPoint x="270" y="30" as="targetPoint" />
          </mxGeometry>
        </mxCell>
        <mxCell id="SKj9K2RSf02lLVQ6DTLs-119" value="critic_id" style="ellipse;whiteSpace=wrap;html=1;" parent="1" vertex="1">
          <mxGeometry x="22" y="-50" width="70" height="40" as="geometry" />
        </mxCell>
        <mxCell id="SKj9K2RSf02lLVQ6DTLs-120" value="" style="endArrow=none;html=1;rounded=0;entryX=0;entryY=0.5;entryDx=0;entryDy=0;exitX=1;exitY=0.5;exitDx=0;exitDy=0;" parent="1" source="SKj9K2RSf02lLVQ6DTLs-121" target="SKj9K2RSf02lLVQ6DTLs-113" edge="1">
          <mxGeometry width="50" height="50" relative="1" as="geometry">
            <mxPoint x="80" y="20" as="sourcePoint" />
            <mxPoint x="120" y="5" as="targetPoint" />
          </mxGeometry>
        </mxCell>
        <mxCell id="SKj9K2RSf02lLVQ6DTLs-121" value="rating" style="ellipse;whiteSpace=wrap;html=1;" parent="1" vertex="1">
          <mxGeometry x="9" y="1.7763568394002505e-15" width="70" height="40" as="geometry" />
        </mxCell>
        <mxCell id="SKj9K2RSf02lLVQ6DTLs-122" value="" style="endArrow=none;html=1;rounded=0;exitX=0;exitY=0.25;exitDx=0;exitDy=0;entryX=0.5;entryY=1;entryDx=0;entryDy=0;" parent="1" source="SKj9K2RSf02lLVQ6DTLs-115" target="SKj9K2RSf02lLVQ6DTLs-129" edge="1">
          <mxGeometry width="50" height="50" relative="1" as="geometry">
            <mxPoint x="300" y="-50" as="sourcePoint" />
            <mxPoint x="90" y="-220" as="targetPoint" />
          </mxGeometry>
        </mxCell>
        <mxCell id="SKj9K2RSf02lLVQ6DTLs-123" value="" style="endArrow=none;html=1;rounded=0;exitX=0.25;exitY=0;exitDx=0;exitDy=0;entryX=0.5;entryY=1;entryDx=0;entryDy=0;" parent="1" source="SKj9K2RSf02lLVQ6DTLs-115" target="SKj9K2RSf02lLVQ6DTLs-130" edge="1">
          <mxGeometry width="50" height="50" relative="1" as="geometry">
            <mxPoint x="140" y="-160" as="sourcePoint" />
            <mxPoint x="150" y="-220" as="targetPoint" />
          </mxGeometry>
        </mxCell>
        <mxCell id="SKj9K2RSf02lLVQ6DTLs-124" value="" style="endArrow=none;html=1;rounded=0;exitX=0.5;exitY=0;exitDx=0;exitDy=0;entryX=0.5;entryY=1;entryDx=0;entryDy=0;" parent="1" source="SKj9K2RSf02lLVQ6DTLs-115" target="SKj9K2RSf02lLVQ6DTLs-131" edge="1">
          <mxGeometry width="50" height="50" relative="1" as="geometry">
            <mxPoint x="150" y="-150" as="sourcePoint" />
            <mxPoint x="200" y="-220" as="targetPoint" />
          </mxGeometry>
        </mxCell>
        <mxCell id="SKj9K2RSf02lLVQ6DTLs-125" value="" style="endArrow=none;html=1;rounded=0;exitX=0;exitY=0.5;exitDx=0;exitDy=0;entryX=1;entryY=0.5;entryDx=0;entryDy=0;" parent="1" source="SKj9K2RSf02lLVQ6DTLs-115" target="SKj9K2RSf02lLVQ6DTLs-127" edge="1">
          <mxGeometry width="50" height="50" relative="1" as="geometry">
            <mxPoint x="160" y="-140" as="sourcePoint" />
            <mxPoint x="80" y="-180" as="targetPoint" />
          </mxGeometry>
        </mxCell>
        <mxCell id="SKj9K2RSf02lLVQ6DTLs-126" value="" style="endArrow=none;html=1;rounded=0;exitX=0.9;exitY=-0.05;exitDx=0;exitDy=0;exitPerimeter=0;entryX=0;entryY=1;entryDx=0;entryDy=0;" parent="1" source="SKj9K2RSf02lLVQ6DTLs-115" target="SKj9K2RSf02lLVQ6DTLs-132" edge="1">
          <mxGeometry width="50" height="50" relative="1" as="geometry">
            <mxPoint x="170" y="-130" as="sourcePoint" />
            <mxPoint x="270" y="-210" as="targetPoint" />
          </mxGeometry>
        </mxCell>
        <mxCell id="SKj9K2RSf02lLVQ6DTLs-127" value="id" style="ellipse;whiteSpace=wrap;html=1;" parent="1" vertex="1">
          <mxGeometry x="19" y="-200" width="50" height="40" as="geometry" />
        </mxCell>
        <mxCell id="SKj9K2RSf02lLVQ6DTLs-129" value="first_name" style="ellipse;whiteSpace=wrap;html=1;" parent="1" vertex="1">
          <mxGeometry x="44" y="-260" width="81" height="40" as="geometry" />
        </mxCell>
        <mxCell id="SKj9K2RSf02lLVQ6DTLs-130" value="last_name" style="ellipse;whiteSpace=wrap;html=1;" parent="1" vertex="1">
          <mxGeometry x="117" y="-300" width="81" height="40" as="geometry" />
        </mxCell>
        <mxCell id="SKj9K2RSf02lLVQ6DTLs-131" value="username" style="ellipse;whiteSpace=wrap;html=1;" parent="1" vertex="1">
          <mxGeometry x="179" y="-260" width="81" height="40" as="geometry" />
        </mxCell>
        <mxCell id="SKj9K2RSf02lLVQ6DTLs-132" value="passsword" style="ellipse;whiteSpace=wrap;html=1;" parent="1" vertex="1">
          <mxGeometry x="274.5" y="-280" width="81" height="40" as="geometry" />
        </mxCell>
        <mxCell id="SKj9K2RSf02lLVQ6DTLs-133" value="" style="endArrow=none;html=1;rounded=0;exitX=0.5;exitY=0;exitDx=0;exitDy=0;entryX=1;entryY=1;entryDx=0;entryDy=0;" parent="1" source="SKj9K2RSf02lLVQ6DTLs-134" target="SKj9K2RSf02lLVQ6DTLs-115" edge="1">
          <mxGeometry width="50" height="50" relative="1" as="geometry">
            <mxPoint x="329" y="-10" as="sourcePoint" />
            <mxPoint x="350" y="-130" as="targetPoint" />
          </mxGeometry>
        </mxCell>
        <mxCell id="SKj9K2RSf02lLVQ6DTLs-140" value="M" style="edgeLabel;html=1;align=center;verticalAlign=middle;resizable=0;points=[];rotation=-45;" parent="SKj9K2RSf02lLVQ6DTLs-133" vertex="1" connectable="0">
          <mxGeometry x="0.5664" y="-1" relative="1" as="geometry">
            <mxPoint x="-9" y="-15" as="offset" />
          </mxGeometry>
        </mxCell>
        <mxCell id="SKj9K2RSf02lLVQ6DTLs-136" value="" style="endArrow=none;html=1;rounded=0;exitX=0;exitY=0;exitDx=0;exitDy=0;entryX=0.5;entryY=1;entryDx=0;entryDy=0;" parent="1" source="SKj9K2RSf02lLVQ6DTLs-14" target="SKj9K2RSf02lLVQ6DTLs-134" edge="1">
          <mxGeometry width="50" height="50" relative="1" as="geometry">
            <mxPoint x="590" y="140" as="sourcePoint" />
            <mxPoint x="250" y="-140" as="targetPoint" />
          </mxGeometry>
        </mxCell>
        <mxCell id="SKj9K2RSf02lLVQ6DTLs-139" value="M" style="edgeLabel;html=1;align=center;verticalAlign=middle;resizable=0;points=[];rotation=-45;" parent="SKj9K2RSf02lLVQ6DTLs-136" vertex="1" connectable="0">
          <mxGeometry x="-0.8094" y="-1" relative="1" as="geometry">
            <mxPoint x="7" y="-1" as="offset" />
          </mxGeometry>
        </mxCell>
        <mxCell id="SKj9K2RSf02lLVQ6DTLs-141" value="" style="rounded=1;whiteSpace=wrap;html=1;rotation=-45;fillColor=#f8cecc;strokeColor=#b85450;" parent="1" vertex="1">
          <mxGeometry x="329.33" y="-50.98" width="110.44" height="60" as="geometry" />
        </mxCell>
        <mxCell id="SKj9K2RSf02lLVQ6DTLs-134" value="actor_critique" style="rhombus;whiteSpace=wrap;html=1;rotation=-45;fillColor=#f8cecc;strokeColor=#b85450;" parent="1" vertex="1">
          <mxGeometry x="330" y="-50" width="109.5" height="59.57" as="geometry" />
        </mxCell>
        <mxCell id="SKj9K2RSf02lLVQ6DTLs-146" value="actor_id" style="ellipse;whiteSpace=wrap;html=1;" parent="1" vertex="1">
          <mxGeometry x="510" y="-130" width="70" height="40" as="geometry" />
        </mxCell>
        <mxCell id="SKj9K2RSf02lLVQ6DTLs-147" value="" style="endArrow=none;html=1;rounded=0;entryX=1;entryY=0.5;entryDx=0;entryDy=0;exitX=0;exitY=1;exitDx=0;exitDy=0;" parent="1" source="SKj9K2RSf02lLVQ6DTLs-148" target="SKj9K2RSf02lLVQ6DTLs-141" edge="1">
          <mxGeometry width="50" height="50" relative="1" as="geometry">
            <mxPoint x="511" y="-140" as="sourcePoint" />
            <mxPoint x="561" y="-125" as="targetPoint" />
          </mxGeometry>
        </mxCell>
        <mxCell id="SKj9K2RSf02lLVQ6DTLs-148" value="critic_id" style="ellipse;whiteSpace=wrap;html=1;" parent="1" vertex="1">
          <mxGeometry x="473" y="-170" width="70" height="40" as="geometry" />
        </mxCell>
        <mxCell id="SKj9K2RSf02lLVQ6DTLs-149" value="" style="endArrow=none;html=1;rounded=0;entryX=1;entryY=0.25;entryDx=0;entryDy=0;exitX=0.5;exitY=1;exitDx=0;exitDy=0;" parent="1" source="SKj9K2RSf02lLVQ6DTLs-150" target="SKj9K2RSf02lLVQ6DTLs-141" edge="1">
          <mxGeometry width="50" height="50" relative="1" as="geometry">
            <mxPoint x="531" y="-100" as="sourcePoint" />
            <mxPoint x="561" y="-110" as="targetPoint" />
          </mxGeometry>
        </mxCell>
        <mxCell id="SKj9K2RSf02lLVQ6DTLs-150" value="movie_id" style="ellipse;whiteSpace=wrap;html=1;" parent="1" vertex="1">
          <mxGeometry x="396" y="-180" width="70" height="40" as="geometry" />
        </mxCell>
        <mxCell id="SKj9K2RSf02lLVQ6DTLs-151" value="" style="endArrow=none;html=1;rounded=0;exitX=0;exitY=1;exitDx=0;exitDy=0;entryX=1;entryY=0.75;entryDx=0;entryDy=0;" parent="1" source="SKj9K2RSf02lLVQ6DTLs-146" target="SKj9K2RSf02lLVQ6DTLs-141" edge="1">
          <mxGeometry width="50" height="50" relative="1" as="geometry">
            <mxPoint x="493" y="-126" as="sourcePoint" />
            <mxPoint x="460" y="-40" as="targetPoint" />
          </mxGeometry>
        </mxCell>
        <mxCell id="SKj9K2RSf02lLVQ6DTLs-152" value="acting_grade" style="ellipse;whiteSpace=wrap;html=1;" parent="1" vertex="1">
          <mxGeometry x="570" y="-95" width="130" height="40" as="geometry" />
        </mxCell>
        <mxCell id="SKj9K2RSf02lLVQ6DTLs-153" value="" style="endArrow=none;html=1;rounded=0;exitX=0;exitY=1;exitDx=0;exitDy=0;entryX=0.75;entryY=1;entryDx=0;entryDy=0;" parent="1" source="SKj9K2RSf02lLVQ6DTLs-152" target="SKj9K2RSf02lLVQ6DTLs-141" edge="1">
          <mxGeometry width="50" height="50" relative="1" as="geometry">
            <mxPoint x="503" y="-116" as="sourcePoint" />
            <mxPoint x="444" y="-39" as="targetPoint" />
          </mxGeometry>
        </mxCell>
        <mxCell id="SKj9K2RSf02lLVQ6DTLs-154" value="expression_grade" style="ellipse;whiteSpace=wrap;html=1;" parent="1" vertex="1">
          <mxGeometry x="550" y="-40.98" width="130" height="40" as="geometry" />
        </mxCell>
        <mxCell id="SKj9K2RSf02lLVQ6DTLs-155" value="" style="endArrow=none;html=1;rounded=0;exitX=0;exitY=1;exitDx=0;exitDy=0;entryX=0.75;entryY=1;entryDx=0;entryDy=0;" parent="1" source="SKj9K2RSf02lLVQ6DTLs-154" target="SKj9K2RSf02lLVQ6DTLs-141" edge="1">
          <mxGeometry width="50" height="50" relative="1" as="geometry">
            <mxPoint x="513" y="-106" as="sourcePoint" />
            <mxPoint x="454" y="-29" as="targetPoint" />
          </mxGeometry>
        </mxCell>
        <mxCell id="SKj9K2RSf02lLVQ6DTLs-156" value="naturalness_grade" style="ellipse;whiteSpace=wrap;html=1;" parent="1" vertex="1">
          <mxGeometry x="210" y="55" width="115" height="40" as="geometry" />
        </mxCell>
        <mxCell id="SKj9K2RSf02lLVQ6DTLs-157" value="" style="endArrow=none;html=1;rounded=0;exitX=0.5;exitY=0;exitDx=0;exitDy=0;entryX=0;entryY=0.5;entryDx=0;entryDy=0;" parent="1" source="SKj9K2RSf02lLVQ6DTLs-156" target="SKj9K2RSf02lLVQ6DTLs-134" edge="1">
          <mxGeometry width="50" height="50" relative="1" as="geometry">
            <mxPoint x="523" y="-96" as="sourcePoint" />
            <mxPoint x="464" y="-19" as="targetPoint" />
          </mxGeometry>
        </mxCell>
        <mxCell id="SKj9K2RSf02lLVQ6DTLs-158" value="devotion_grade" style="ellipse;whiteSpace=wrap;html=1;" parent="1" vertex="1">
          <mxGeometry x="332.89" y="55" width="106.88" height="40" as="geometry" />
        </mxCell>
        <mxCell id="SKj9K2RSf02lLVQ6DTLs-159" value="" style="endArrow=none;html=1;rounded=0;exitX=0.5;exitY=0;exitDx=0;exitDy=0;entryX=0.25;entryY=1;entryDx=0;entryDy=0;" parent="1" source="SKj9K2RSf02lLVQ6DTLs-158" target="SKj9K2RSf02lLVQ6DTLs-141" edge="1">
          <mxGeometry width="50" height="50" relative="1" as="geometry">
            <mxPoint x="349.88" y="54.53" as="sourcePoint" />
            <mxPoint x="203.1199852070357" y="160.28642166415673" as="targetPoint" />
          </mxGeometry>
        </mxCell>
        <mxCell id="SKj9K2RSf02lLVQ6DTLs-161" value="&lt;font style=&quot;font-size: 18px;&quot;&gt;Oscar_Winner&lt;/font&gt;" style="rounded=1;whiteSpace=wrap;html=1;fillColor=#dae8fc;strokeColor=#6c8ebf;" parent="1" vertex="1">
          <mxGeometry x="553" y="499.33" width="130" height="60" as="geometry" />
        </mxCell>
        <mxCell id="SKj9K2RSf02lLVQ6DTLs-162" value="" style="endArrow=none;html=1;rounded=0;exitX=0.5;exitY=1;exitDx=0;exitDy=0;entryX=0;entryY=0;entryDx=0;entryDy=0;" parent="1" source="SKj9K2RSf02lLVQ6DTLs-161" target="SKj9K2RSf02lLVQ6DTLs-163" edge="1">
          <mxGeometry width="50" height="50" relative="1" as="geometry">
            <mxPoint x="658.06" y="704.33" as="sourcePoint" />
            <mxPoint x="508.05999999999995" y="699.33" as="targetPoint" />
          </mxGeometry>
        </mxCell>
        <mxCell id="SKj9K2RSf02lLVQ6DTLs-163" value="year" style="ellipse;whiteSpace=wrap;html=1;" parent="1" vertex="1">
          <mxGeometry x="610" y="641.33" width="110" height="40" as="geometry" />
        </mxCell>
        <mxCell id="SKj9K2RSf02lLVQ6DTLs-164" value="" style="endArrow=none;html=1;rounded=0;exitX=0.25;exitY=1;exitDx=0;exitDy=0;entryX=0.5;entryY=0;entryDx=0;entryDy=0;" parent="1" source="SKj9K2RSf02lLVQ6DTLs-161" target="SKj9K2RSf02lLVQ6DTLs-165" edge="1">
          <mxGeometry width="50" height="50" relative="1" as="geometry">
            <mxPoint x="628.06" y="704.33" as="sourcePoint" />
            <mxPoint x="518.06" y="763.33" as="targetPoint" />
          </mxGeometry>
        </mxCell>
        <mxCell id="SKj9K2RSf02lLVQ6DTLs-165" value="movie_id" style="ellipse;whiteSpace=wrap;html=1;" parent="1" vertex="1">
          <mxGeometry x="540" y="701.33" width="110" height="40" as="geometry" />
        </mxCell>
        <mxCell id="SKj9K2RSf02lLVQ6DTLs-168" value="" style="endArrow=none;html=1;rounded=0;exitX=0;exitY=1;exitDx=0;exitDy=0;entryX=0.5;entryY=0;entryDx=0;entryDy=0;" parent="1" source="SKj9K2RSf02lLVQ6DTLs-161" target="SKj9K2RSf02lLVQ6DTLs-169" edge="1">
          <mxGeometry width="50" height="50" relative="1" as="geometry">
            <mxPoint x="568.06" y="704.33" as="sourcePoint" />
            <mxPoint x="538.06" y="729.33" as="targetPoint" />
          </mxGeometry>
        </mxCell>
        <mxCell id="SKj9K2RSf02lLVQ6DTLs-169" value="role" style="ellipse;whiteSpace=wrap;html=1;" parent="1" vertex="1">
          <mxGeometry x="460" y="641.33" width="110" height="40" as="geometry" />
        </mxCell>
        <mxCell id="SKj9K2RSf02lLVQ6DTLs-170" value="" style="endArrow=none;html=1;rounded=0;exitX=0.75;exitY=1;exitDx=0;exitDy=0;entryX=0;entryY=0;entryDx=0;entryDy=0;" parent="1" source="SKj9K2RSf02lLVQ6DTLs-161" target="SKj9K2RSf02lLVQ6DTLs-171" edge="1">
          <mxGeometry width="50" height="50" relative="1" as="geometry">
            <mxPoint x="748.06" y="499.33" as="sourcePoint" />
            <mxPoint x="688.06" y="489.33" as="targetPoint" />
          </mxGeometry>
        </mxCell>
        <mxCell id="SKj9K2RSf02lLVQ6DTLs-171" value="actor_id" style="ellipse;whiteSpace=wrap;html=1;" parent="1" vertex="1">
          <mxGeometry x="740" y="647" width="110" height="40" as="geometry" />
        </mxCell>
        <mxCell id="SKj9K2RSf02lLVQ6DTLs-172" value="" style="endArrow=none;html=1;rounded=0;entryX=0.5;entryY=1;entryDx=0;entryDy=0;exitX=0.5;exitY=0;exitDx=0;exitDy=0;" parent="1" source="SKj9K2RSf02lLVQ6DTLs-174" target="SKj9K2RSf02lLVQ6DTLs-14" edge="1">
          <mxGeometry width="50" height="50" relative="1" as="geometry">
            <mxPoint x="510" y="350" as="sourcePoint" />
            <mxPoint x="560" y="300" as="targetPoint" />
          </mxGeometry>
        </mxCell>
        <mxCell id="SKj9K2RSf02lLVQ6DTLs-179" value="1" style="edgeLabel;html=1;align=center;verticalAlign=middle;resizable=0;points=[];" parent="SKj9K2RSf02lLVQ6DTLs-172" vertex="1" connectable="0">
          <mxGeometry x="0.5918" relative="1" as="geometry">
            <mxPoint x="-9" y="-7" as="offset" />
          </mxGeometry>
        </mxCell>
        <mxCell id="SKj9K2RSf02lLVQ6DTLs-173" value="" style="endArrow=none;html=1;rounded=0;entryX=0;entryY=0.5;entryDx=0;entryDy=0;exitX=1;exitY=0.5;exitDx=0;exitDy=0;" parent="1" source="SKj9K2RSf02lLVQ6DTLs-176" target="SKj9K2RSf02lLVQ6DTLs-161" edge="1">
          <mxGeometry width="50" height="50" relative="1" as="geometry">
            <mxPoint x="625" y="450" as="sourcePoint" />
            <mxPoint x="660" y="210" as="targetPoint" />
          </mxGeometry>
        </mxCell>
        <mxCell id="SKj9K2RSf02lLVQ6DTLs-183" value="M" style="edgeLabel;html=1;align=center;verticalAlign=middle;resizable=0;points=[];" parent="SKj9K2RSf02lLVQ6DTLs-173" vertex="1" connectable="0">
          <mxGeometry x="0.5416" y="-2" relative="1" as="geometry">
            <mxPoint x="13" y="6" as="offset" />
          </mxGeometry>
        </mxCell>
        <mxCell id="SKj9K2RSf02lLVQ6DTLs-175" value="" style="endArrow=none;html=1;rounded=0;entryX=0.5;entryY=1;entryDx=0;entryDy=0;exitX=0.75;exitY=0;exitDx=0;exitDy=0;" parent="1" target="SKj9K2RSf02lLVQ6DTLs-174" edge="1" source="SKj9K2RSf02lLVQ6DTLs-161">
          <mxGeometry width="50" height="50" relative="1" as="geometry">
            <mxPoint x="650" y="460" as="sourcePoint" />
            <mxPoint x="650" y="200" as="targetPoint" />
          </mxGeometry>
        </mxCell>
        <mxCell id="M7KWWRD0kaqrNl2Gh5wV-3" value="1" style="edgeLabel;html=1;align=center;verticalAlign=middle;resizable=0;points=[];" vertex="1" connectable="0" parent="SKj9K2RSf02lLVQ6DTLs-175">
          <mxGeometry x="-0.5535" relative="1" as="geometry">
            <mxPoint x="-11" y="10" as="offset" />
          </mxGeometry>
        </mxCell>
        <mxCell id="SKj9K2RSf02lLVQ6DTLs-174" value="is" style="rhombus;whiteSpace=wrap;html=1;fillColor=#ffe6cc;strokeColor=#d79b00;" parent="1" vertex="1">
          <mxGeometry x="622" y="284" width="60" height="56" as="geometry" />
        </mxCell>
        <mxCell id="SKj9K2RSf02lLVQ6DTLs-178" value="" style="endArrow=none;html=1;rounded=0;entryX=0;entryY=0.5;entryDx=0;entryDy=0;exitX=1;exitY=0.5;exitDx=0;exitDy=0;" parent="1" source="SKj9K2RSf02lLVQ6DTLs-70" target="SKj9K2RSf02lLVQ6DTLs-176" edge="1">
          <mxGeometry width="50" height="50" relative="1" as="geometry">
            <mxPoint x="237" y="530" as="sourcePoint" />
            <mxPoint x="585" y="490" as="targetPoint" />
          </mxGeometry>
        </mxCell>
        <mxCell id="SKj9K2RSf02lLVQ6DTLs-182" value="1" style="edgeLabel;html=1;align=center;verticalAlign=middle;resizable=0;points=[];" parent="SKj9K2RSf02lLVQ6DTLs-178" vertex="1" connectable="0">
          <mxGeometry x="-0.7902" y="-1" relative="1" as="geometry">
            <mxPoint x="-5" y="7" as="offset" />
          </mxGeometry>
        </mxCell>
        <mxCell id="SKj9K2RSf02lLVQ6DTLs-176" value="play" style="rhombus;whiteSpace=wrap;html=1;rotation=0;fillColor=#ffe6cc;strokeColor=#d79b00;" parent="1" vertex="1">
          <mxGeometry x="359.50000000000006" y="496" width="80" height="70" as="geometry" />
        </mxCell>
        <mxCell id="M7KWWRD0kaqrNl2Gh5wV-4" value="" style="endArrow=none;html=1;rounded=0;entryX=1;entryY=1;entryDx=0;entryDy=0;exitX=0.5;exitY=0;exitDx=0;exitDy=0;" edge="1" parent="1" source="M7KWWRD0kaqrNl2Gh5wV-8" target="SKj9K2RSf02lLVQ6DTLs-14">
          <mxGeometry width="50" height="50" relative="1" as="geometry">
            <mxPoint x="647" y="354" as="sourcePoint" />
            <mxPoint x="787" y="204" as="targetPoint" />
          </mxGeometry>
        </mxCell>
        <mxCell id="M7KWWRD0kaqrNl2Gh5wV-5" value="1" style="edgeLabel;html=1;align=center;verticalAlign=middle;resizable=0;points=[];" vertex="1" connectable="0" parent="M7KWWRD0kaqrNl2Gh5wV-4">
          <mxGeometry x="0.5918" relative="1" as="geometry">
            <mxPoint x="-9" y="-7" as="offset" />
          </mxGeometry>
        </mxCell>
        <mxCell id="M7KWWRD0kaqrNl2Gh5wV-6" value="" style="endArrow=none;html=1;rounded=0;entryX=0.5;entryY=1;entryDx=0;entryDy=0;exitX=0.25;exitY=0;exitDx=0;exitDy=0;" edge="1" parent="1" target="M7KWWRD0kaqrNl2Gh5wV-8" source="M7KWWRD0kaqrNl2Gh5wV-9">
          <mxGeometry width="50" height="50" relative="1" as="geometry">
            <mxPoint x="920" y="500" as="sourcePoint" />
            <mxPoint x="787" y="204" as="targetPoint" />
          </mxGeometry>
        </mxCell>
        <mxCell id="M7KWWRD0kaqrNl2Gh5wV-7" value="1" style="edgeLabel;html=1;align=center;verticalAlign=middle;resizable=0;points=[];" vertex="1" connectable="0" parent="M7KWWRD0kaqrNl2Gh5wV-6">
          <mxGeometry x="-0.5535" relative="1" as="geometry">
            <mxPoint x="-7" y="10" as="offset" />
          </mxGeometry>
        </mxCell>
        <mxCell id="M7KWWRD0kaqrNl2Gh5wV-8" value="is" style="rhombus;whiteSpace=wrap;html=1;fillColor=#ffe6cc;strokeColor=#d79b00;rotation=-45;" vertex="1" parent="1">
          <mxGeometry x="770.39" y="278.54" width="60" height="60" as="geometry" />
        </mxCell>
        <mxCell id="M7KWWRD0kaqrNl2Gh5wV-9" value="&lt;font style=&quot;font-size: 18px;&quot;&gt;Regular_Actor&lt;/font&gt;" style="rounded=1;whiteSpace=wrap;html=1;fillColor=#e1d5e7;strokeColor=#9673a6;" vertex="1" parent="1">
          <mxGeometry x="870" y="450" width="130" height="60" as="geometry" />
        </mxCell>
        <mxCell id="M7KWWRD0kaqrNl2Gh5wV-10" value="" style="endArrow=none;html=1;rounded=0;exitX=0.5;exitY=1;exitDx=0;exitDy=0;entryX=0.5;entryY=0;entryDx=0;entryDy=0;" edge="1" parent="1" target="M7KWWRD0kaqrNl2Gh5wV-11" source="M7KWWRD0kaqrNl2Gh5wV-9">
          <mxGeometry width="50" height="50" relative="1" as="geometry">
            <mxPoint x="1112.5" y="436.5" as="sourcePoint" />
            <mxPoint x="908.06" y="425.83" as="targetPoint" />
          </mxGeometry>
        </mxCell>
        <mxCell id="M7KWWRD0kaqrNl2Gh5wV-11" value="actor_id" style="ellipse;whiteSpace=wrap;html=1;" vertex="1" parent="1">
          <mxGeometry x="881" y="565" width="110" height="40" as="geometry" />
        </mxCell>
        <mxCell id="M7KWWRD0kaqrNl2Gh5wV-12" value="" style="endArrow=none;html=1;rounded=0;exitX=0.5;exitY=1;exitDx=0;exitDy=0;entryX=0.5;entryY=0;entryDx=0;entryDy=0;" edge="1" parent="1" target="M7KWWRD0kaqrNl2Gh5wV-13" source="SKj9K2RSf02lLVQ6DTLs-82">
          <mxGeometry width="50" height="50" relative="1" as="geometry">
            <mxPoint x="205" y="1040" as="sourcePoint" />
            <mxPoint x="176" y="930" as="targetPoint" />
          </mxGeometry>
        </mxCell>
        <mxCell id="M7KWWRD0kaqrNl2Gh5wV-13" value="film_id" style="ellipse;whiteSpace=wrap;html=1;" vertex="1" parent="1">
          <mxGeometry x="140.5" y="920" width="70" height="40" as="geometry" />
        </mxCell>
      </root>
    </mxGraphModel>
  </diagram>
</mxfile>
